<mxfile host="app.diagrams.net" agent="Mozilla/5.0 (Macintosh; Intel Mac OS X 10_15_7) AppleWebKit/537.36 (KHTML, like Gecko) Chrome/137.0.0.0 Safari/537.36" version="27.1.5">
  <diagram name="第 1 页" id="ZJf-LdIB68By4PqamjFJ">
    <mxGraphModel dx="1018" dy="1858" grid="1" gridSize="10" guides="1" tooltips="1" connect="1" arrows="1" fold="1" page="1" pageScale="1" pageWidth="827" pageHeight="1169" math="0" shadow="0">
      <root>
        <mxCell id="0" />
        <mxCell id="1" parent="0" />
        <mxCell id="13rWBJODuXO75rGmTGon-2" style="edgeStyle=entityRelationEdgeStyle;rounded=0;orthogonalLoop=1;jettySize=auto;html=1;startArrow=none;endArrow=none;segment=10;curved=1;sourcePerimeterSpacing=0;targetPerimeterSpacing=0;exitX=1;exitY=0;exitDx=0;exitDy=0;" edge="1" parent="1" source="13rWBJODuXO75rGmTGon-1" target="13rWBJODuXO75rGmTGon-3">
          <mxGeometry relative="1" as="geometry">
            <mxPoint x="520" y="60" as="targetPoint" />
          </mxGeometry>
        </mxCell>
        <mxCell id="13rWBJODuXO75rGmTGon-9" style="edgeStyle=entityRelationEdgeStyle;rounded=0;orthogonalLoop=1;jettySize=auto;html=1;startArrow=none;endArrow=none;segment=10;curved=1;sourcePerimeterSpacing=0;targetPerimeterSpacing=0;exitX=1;exitY=0.5;exitDx=0;exitDy=0;" edge="1" parent="1" source="13rWBJODuXO75rGmTGon-1" target="13rWBJODuXO75rGmTGon-10">
          <mxGeometry relative="1" as="geometry">
            <mxPoint x="540" y="275" as="targetPoint" />
          </mxGeometry>
        </mxCell>
        <mxCell id="13rWBJODuXO75rGmTGon-14" style="edgeStyle=entityRelationEdgeStyle;rounded=0;orthogonalLoop=1;jettySize=auto;html=1;startArrow=none;endArrow=none;segment=10;curved=1;sourcePerimeterSpacing=0;targetPerimeterSpacing=0;exitX=1;exitY=1;exitDx=0;exitDy=0;" edge="1" parent="1" source="13rWBJODuXO75rGmTGon-1" target="13rWBJODuXO75rGmTGon-15">
          <mxGeometry relative="1" as="geometry">
            <mxPoint x="480" y="480" as="targetPoint" />
          </mxGeometry>
        </mxCell>
        <mxCell id="13rWBJODuXO75rGmTGon-18" style="edgeStyle=entityRelationEdgeStyle;rounded=0;orthogonalLoop=1;jettySize=auto;html=1;startArrow=none;endArrow=none;segment=10;curved=1;sourcePerimeterSpacing=0;targetPerimeterSpacing=0;exitX=1;exitY=1;exitDx=0;exitDy=0;" edge="1" parent="1" source="13rWBJODuXO75rGmTGon-1" target="13rWBJODuXO75rGmTGon-19">
          <mxGeometry relative="1" as="geometry">
            <mxPoint x="470" y="590" as="targetPoint" />
          </mxGeometry>
        </mxCell>
        <mxCell id="13rWBJODuXO75rGmTGon-23" style="edgeStyle=entityRelationEdgeStyle;rounded=0;orthogonalLoop=1;jettySize=auto;html=1;startArrow=none;endArrow=none;segment=10;curved=1;sourcePerimeterSpacing=0;targetPerimeterSpacing=0;exitX=1;exitY=1;exitDx=0;exitDy=0;" edge="1" parent="1" source="13rWBJODuXO75rGmTGon-1" target="13rWBJODuXO75rGmTGon-24">
          <mxGeometry relative="1" as="geometry">
            <mxPoint x="480" y="760" as="targetPoint" />
          </mxGeometry>
        </mxCell>
        <mxCell id="13rWBJODuXO75rGmTGon-27" style="edgeStyle=entityRelationEdgeStyle;rounded=0;orthogonalLoop=1;jettySize=auto;html=1;startArrow=none;endArrow=none;segment=10;curved=1;sourcePerimeterSpacing=0;targetPerimeterSpacing=0;exitX=1;exitY=1;exitDx=0;exitDy=0;" edge="1" parent="1" source="13rWBJODuXO75rGmTGon-1" target="13rWBJODuXO75rGmTGon-28">
          <mxGeometry relative="1" as="geometry">
            <mxPoint x="500" y="790" as="targetPoint" />
          </mxGeometry>
        </mxCell>
        <mxCell id="13rWBJODuXO75rGmTGon-1" value="Spring底层核心原理" style="ellipse;whiteSpace=wrap;html=1;align=center;newEdgeStyle={&quot;edgeStyle&quot;:&quot;entityRelationEdgeStyle&quot;,&quot;startArrow&quot;:&quot;none&quot;,&quot;endArrow&quot;:&quot;none&quot;,&quot;segment&quot;:10,&quot;curved&quot;:1,&quot;sourcePerimeterSpacing&quot;:0,&quot;targetPerimeterSpacing&quot;:0};treeFolding=1;treeMoving=1;" vertex="1" parent="1">
          <mxGeometry x="250" y="240" width="180" height="70" as="geometry" />
        </mxCell>
        <mxCell id="13rWBJODuXO75rGmTGon-4" style="edgeStyle=entityRelationEdgeStyle;rounded=0;orthogonalLoop=1;jettySize=auto;html=1;startArrow=none;endArrow=none;segment=10;curved=1;sourcePerimeterSpacing=0;targetPerimeterSpacing=0;exitX=1;exitY=0.5;exitDx=0;exitDy=0;" edge="1" parent="1" source="13rWBJODuXO75rGmTGon-3" target="13rWBJODuXO75rGmTGon-5">
          <mxGeometry relative="1" as="geometry">
            <mxPoint x="670" y="20" as="targetPoint" />
          </mxGeometry>
        </mxCell>
        <mxCell id="13rWBJODuXO75rGmTGon-7" style="edgeStyle=entityRelationEdgeStyle;rounded=0;orthogonalLoop=1;jettySize=auto;html=1;startArrow=none;endArrow=none;segment=10;curved=1;sourcePerimeterSpacing=0;targetPerimeterSpacing=0;exitX=1;exitY=0.5;exitDx=0;exitDy=0;" edge="1" parent="1" source="13rWBJODuXO75rGmTGon-3" target="13rWBJODuXO75rGmTGon-8">
          <mxGeometry relative="1" as="geometry">
            <mxPoint x="670" y="120" as="targetPoint" />
          </mxGeometry>
        </mxCell>
        <mxCell id="13rWBJODuXO75rGmTGon-3" value="Spring基本使用" style="whiteSpace=wrap;html=1;rounded=1;arcSize=50;align=center;verticalAlign=middle;strokeWidth=1;autosize=1;spacing=4;treeFolding=1;treeMoving=1;newEdgeStyle={&quot;edgeStyle&quot;:&quot;entityRelationEdgeStyle&quot;,&quot;startArrow&quot;:&quot;none&quot;,&quot;endArrow&quot;:&quot;none&quot;,&quot;segment&quot;:10,&quot;curved&quot;:1,&quot;sourcePerimeterSpacing&quot;:0,&quot;targetPerimeterSpacing&quot;:0};" vertex="1" parent="1">
          <mxGeometry x="455" y="45" width="130" height="30" as="geometry" />
        </mxCell>
        <mxCell id="13rWBJODuXO75rGmTGon-5" value="&lt;div style=&quot;background-color:#fafafa;color:#90a4ae&quot;&gt;&lt;pre style=&quot;font-family:&#39;JetBrains Mono&#39;,monospace;font-size:10.5pt;&quot;&gt;&lt;span style=&quot;color:#6182b8;&quot;&gt;AnnotationConfigApplicationContext&lt;/span&gt;&lt;/pre&gt;&lt;/div&gt;" style="whiteSpace=wrap;html=1;rounded=1;arcSize=50;align=center;verticalAlign=middle;strokeWidth=1;autosize=1;spacing=4;treeFolding=1;treeMoving=1;newEdgeStyle={&quot;edgeStyle&quot;:&quot;entityRelationEdgeStyle&quot;,&quot;startArrow&quot;:&quot;none&quot;,&quot;endArrow&quot;:&quot;none&quot;,&quot;segment&quot;:10,&quot;curved&quot;:1,&quot;sourcePerimeterSpacing&quot;:0,&quot;targetPerimeterSpacing&quot;:0};" vertex="1" parent="1">
          <mxGeometry x="680" y="-20" width="330" height="60" as="geometry" />
        </mxCell>
        <mxCell id="13rWBJODuXO75rGmTGon-8" value="&lt;div style=&quot;background-color:#fafafa;color:#90a4ae&quot;&gt;&lt;pre style=&quot;font-family:&#39;JetBrains Mono&#39;,monospace;font-size:10.5pt;&quot;&gt;&lt;span style=&quot;color:#e2931d;&quot;&gt;ClassPathXmlApplicationContext&lt;/span&gt;&lt;/pre&gt;&lt;/div&gt;" style="whiteSpace=wrap;html=1;rounded=1;arcSize=50;align=center;verticalAlign=middle;strokeWidth=1;autosize=1;spacing=4;treeFolding=1;treeMoving=1;newEdgeStyle={&quot;edgeStyle&quot;:&quot;entityRelationEdgeStyle&quot;,&quot;startArrow&quot;:&quot;none&quot;,&quot;endArrow&quot;:&quot;none&quot;,&quot;segment&quot;:10,&quot;curved&quot;:1,&quot;sourcePerimeterSpacing&quot;:0,&quot;targetPerimeterSpacing&quot;:0};" vertex="1" parent="1">
          <mxGeometry x="690" y="75" width="300" height="60" as="geometry" />
        </mxCell>
        <mxCell id="13rWBJODuXO75rGmTGon-11" style="edgeStyle=entityRelationEdgeStyle;rounded=0;orthogonalLoop=1;jettySize=auto;html=1;startArrow=none;endArrow=none;segment=10;curved=1;sourcePerimeterSpacing=0;targetPerimeterSpacing=0;exitX=1;exitY=0.5;exitDx=0;exitDy=0;" edge="1" parent="1" source="13rWBJODuXO75rGmTGon-10" target="13rWBJODuXO75rGmTGon-13">
          <mxGeometry relative="1" as="geometry">
            <mxPoint x="770" y="275" as="targetPoint" />
          </mxGeometry>
        </mxCell>
        <mxCell id="13rWBJODuXO75rGmTGon-10" value="Spring是如何得到Bean的类信息的?" style="whiteSpace=wrap;html=1;rounded=1;arcSize=50;align=center;verticalAlign=middle;strokeWidth=1;autosize=1;spacing=4;treeFolding=1;treeMoving=1;newEdgeStyle={&quot;edgeStyle&quot;:&quot;entityRelationEdgeStyle&quot;,&quot;startArrow&quot;:&quot;none&quot;,&quot;endArrow&quot;:&quot;none&quot;,&quot;segment&quot;:10,&quot;curved&quot;:1,&quot;sourcePerimeterSpacing&quot;:0,&quot;targetPerimeterSpacing&quot;:0};" vertex="1" parent="1">
          <mxGeometry x="485" y="260" width="230" height="30" as="geometry" />
        </mxCell>
        <mxCell id="13rWBJODuXO75rGmTGon-13" value="1. 解析配置类, 得到@ComponentScan扫描路径&lt;div&gt;2. 扫描路径下的所有Java类, 找到存在@Component注解的类&lt;/div&gt;&lt;div&gt;3. 将这些类存放在Spring内部的一个Map容器中&lt;/div&gt;" style="text;html=1;align=center;verticalAlign=middle;whiteSpace=wrap;rounded=0;" vertex="1" parent="1">
          <mxGeometry x="740" y="260" width="510" height="30" as="geometry" />
        </mxCell>
        <mxCell id="13rWBJODuXO75rGmTGon-16" style="edgeStyle=entityRelationEdgeStyle;rounded=0;orthogonalLoop=1;jettySize=auto;html=1;startArrow=none;endArrow=none;segment=10;curved=1;sourcePerimeterSpacing=0;targetPerimeterSpacing=0;exitX=1;exitY=0.5;exitDx=0;exitDy=0;" edge="1" parent="1" source="13rWBJODuXO75rGmTGon-15" target="13rWBJODuXO75rGmTGon-17">
          <mxGeometry relative="1" as="geometry">
            <mxPoint x="810" y="395" as="targetPoint" />
          </mxGeometry>
        </mxCell>
        <mxCell id="13rWBJODuXO75rGmTGon-15" value="Bean的创建过程" style="whiteSpace=wrap;html=1;rounded=1;arcSize=50;align=center;verticalAlign=middle;strokeWidth=1;autosize=1;spacing=4;treeFolding=1;treeMoving=1;newEdgeStyle={&quot;edgeStyle&quot;:&quot;entityRelationEdgeStyle&quot;,&quot;startArrow&quot;:&quot;none&quot;,&quot;endArrow&quot;:&quot;none&quot;,&quot;segment&quot;:10,&quot;curved&quot;:1,&quot;sourcePerimeterSpacing&quot;:0,&quot;targetPerimeterSpacing&quot;:0};" vertex="1" parent="1">
          <mxGeometry x="510" y="380" width="130" height="30" as="geometry" />
        </mxCell>
        <mxCell id="13rWBJODuXO75rGmTGon-17" value="1. 调用Bean的构造函数创建普通对象&lt;div&gt;2.通过依赖注入为类成员赋值&lt;/div&gt;&lt;div&gt;3. 如果类实现了Aware接口, 则调用相应的方法&lt;/div&gt;&lt;div&gt;4. 如果存在@PostConstruct方法, 进行调用&lt;/div&gt;&lt;div&gt;5. 如果类实现了InitializingBean接口, 则调用相应的初始化方法afterPropertiesSet&lt;/div&gt;&lt;div&gt;6. 根据当前对象是否需要AOP,生成代理对象, 并代替普通对象作为Bean&lt;/div&gt;" style="text;html=1;align=center;verticalAlign=middle;whiteSpace=wrap;rounded=0;" vertex="1" parent="1">
          <mxGeometry x="780" y="380" width="430" height="30" as="geometry" />
        </mxCell>
        <mxCell id="13rWBJODuXO75rGmTGon-20" style="edgeStyle=entityRelationEdgeStyle;rounded=0;orthogonalLoop=1;jettySize=auto;html=1;startArrow=none;endArrow=none;segment=10;curved=1;sourcePerimeterSpacing=0;targetPerimeterSpacing=0;exitX=1;exitY=0.5;exitDx=0;exitDy=0;" edge="1" parent="1" source="13rWBJODuXO75rGmTGon-19" target="13rWBJODuXO75rGmTGon-21">
          <mxGeometry relative="1" as="geometry">
            <mxPoint x="750" y="500" as="targetPoint" />
          </mxGeometry>
        </mxCell>
        <mxCell id="13rWBJODuXO75rGmTGon-19" value="推断构造方法" style="whiteSpace=wrap;html=1;rounded=1;arcSize=50;align=center;verticalAlign=middle;strokeWidth=1;autosize=1;spacing=4;treeFolding=1;treeMoving=1;newEdgeStyle={&quot;edgeStyle&quot;:&quot;entityRelationEdgeStyle&quot;,&quot;startArrow&quot;:&quot;none&quot;,&quot;endArrow&quot;:&quot;none&quot;,&quot;segment&quot;:10,&quot;curved&quot;:1,&quot;sourcePerimeterSpacing&quot;:0,&quot;targetPerimeterSpacing&quot;:0};" vertex="1" parent="1">
          <mxGeometry x="515" y="500" width="120" height="30" as="geometry" />
        </mxCell>
        <mxCell id="13rWBJODuXO75rGmTGon-21" value="1. 如果类只有一个构造方法, 直接调用&lt;div&gt;2. 如果类中的构造方法通过@Autowired注解标注, 则使用该构造方法&lt;/div&gt;&lt;div&gt;3. 如果类有多个构造方法, 调用无参构造, 没有无参构造则报错&lt;/div&gt;&lt;div&gt;&lt;br&gt;&lt;/div&gt;&lt;div&gt;有参构造方法的参数在Spring容器中通过类型寻找, 如果有多个满足则根据名字寻找&lt;/div&gt;" style="text;html=1;align=center;verticalAlign=middle;whiteSpace=wrap;rounded=0;" vertex="1" parent="1">
          <mxGeometry x="730" y="500" width="480" height="60" as="geometry" />
        </mxCell>
        <mxCell id="13rWBJODuXO75rGmTGon-25" style="edgeStyle=entityRelationEdgeStyle;rounded=0;orthogonalLoop=1;jettySize=auto;html=1;startArrow=none;endArrow=none;segment=10;curved=1;sourcePerimeterSpacing=0;targetPerimeterSpacing=0;exitX=1;exitY=0.5;exitDx=0;exitDy=0;" edge="1" parent="1" source="13rWBJODuXO75rGmTGon-24" target="13rWBJODuXO75rGmTGon-26">
          <mxGeometry relative="1" as="geometry">
            <mxPoint x="770" y="675" as="targetPoint" />
          </mxGeometry>
        </mxCell>
        <mxCell id="13rWBJODuXO75rGmTGon-24" value="Spring AOP 流程" style="whiteSpace=wrap;html=1;rounded=1;arcSize=50;align=center;verticalAlign=middle;strokeWidth=1;autosize=1;spacing=4;treeFolding=1;treeMoving=1;newEdgeStyle={&quot;edgeStyle&quot;:&quot;entityRelationEdgeStyle&quot;,&quot;startArrow&quot;:&quot;none&quot;,&quot;endArrow&quot;:&quot;none&quot;,&quot;segment&quot;:10,&quot;curved&quot;:1,&quot;sourcePerimeterSpacing&quot;:0,&quot;targetPerimeterSpacing&quot;:0};" vertex="1" parent="1">
          <mxGeometry x="500" y="660" width="130" height="30" as="geometry" />
        </mxCell>
        <mxCell id="13rWBJODuXO75rGmTGon-26" value="1. SpringAOP首先会对所有切面类(@Aspect @Component)中的切点进行收集&lt;div&gt;2. 然后创建Bean时通过BeanPostProcessor的&lt;span style=&quot;background-color: light-dark(#ffffff, var(--ge-dark-color, #121212));&quot;&gt;&lt;font face=&quot;Helvetica&quot; style=&quot;color: light-dark(rgb(97, 130, 184), rgb(255, 255, 255));&quot;&gt;postProcessAfterInitialization判断当前类是否被切入&lt;/font&gt;&lt;/span&gt;&lt;/div&gt;&lt;div&gt;&lt;span style=&quot;background-color: light-dark(#ffffff, var(--ge-dark-color, #121212));&quot;&gt;&lt;font face=&quot;Helvetica&quot; style=&quot;color: light-dark(rgb(97, 130, 184), rgb(255, 255, 255));&quot;&gt;3. 如果被切入则使用(JDK/CGLib)创建动态代理类并返回给Spring容器&lt;/font&gt;&lt;/span&gt;&lt;/div&gt;&lt;div&gt;&lt;span style=&quot;background-color: light-dark(#ffffff, var(--ge-dark-color, #121212));&quot;&gt;&lt;font face=&quot;Helvetica&quot; style=&quot;color: light-dark(rgb(97, 130, 184), rgb(255, 255, 255));&quot;&gt;&lt;br&gt;&lt;/font&gt;&lt;/span&gt;&lt;/div&gt;&lt;div&gt;&lt;span style=&quot;background-color: light-dark(#ffffff, var(--ge-dark-color, #121212));&quot;&gt;&lt;font face=&quot;Helvetica&quot; style=&quot;color: light-dark(rgb(97, 130, 184), rgb(255, 255, 255));&quot;&gt;代理类中会有一个target属性, 执行代理方法时首先执行切面逻辑, 然后通过target.方法调用原方法&lt;/font&gt;&lt;/span&gt;&lt;/div&gt;" style="text;html=1;align=center;verticalAlign=middle;whiteSpace=wrap;rounded=0;" vertex="1" parent="1">
          <mxGeometry x="740" y="660" width="580" height="92" as="geometry" />
        </mxCell>
        <mxCell id="13rWBJODuXO75rGmTGon-29" style="edgeStyle=entityRelationEdgeStyle;rounded=0;orthogonalLoop=1;jettySize=auto;html=1;startArrow=none;endArrow=none;segment=10;curved=1;sourcePerimeterSpacing=0;targetPerimeterSpacing=0;exitX=1;exitY=0.5;exitDx=0;exitDy=0;" edge="1" parent="1" source="13rWBJODuXO75rGmTGon-28" target="13rWBJODuXO75rGmTGon-30">
          <mxGeometry relative="1" as="geometry">
            <mxPoint x="710" y="840" as="targetPoint" />
          </mxGeometry>
        </mxCell>
        <mxCell id="13rWBJODuXO75rGmTGon-31" style="edgeStyle=entityRelationEdgeStyle;rounded=0;orthogonalLoop=1;jettySize=auto;html=1;startArrow=none;endArrow=none;segment=10;curved=1;sourcePerimeterSpacing=0;targetPerimeterSpacing=0;exitX=0.5;exitY=1;exitDx=0;exitDy=0;" edge="1" parent="1" source="13rWBJODuXO75rGmTGon-28" target="13rWBJODuXO75rGmTGon-35">
          <mxGeometry relative="1" as="geometry">
            <mxPoint x="530" y="900" as="targetPoint" />
          </mxGeometry>
        </mxCell>
        <mxCell id="13rWBJODuXO75rGmTGon-28" value="Spring Tx实现原理" style="whiteSpace=wrap;html=1;rounded=1;arcSize=50;align=center;verticalAlign=middle;strokeWidth=1;autosize=1;spacing=4;treeFolding=1;treeMoving=1;newEdgeStyle={&quot;edgeStyle&quot;:&quot;entityRelationEdgeStyle&quot;,&quot;startArrow&quot;:&quot;none&quot;,&quot;endArrow&quot;:&quot;none&quot;,&quot;segment&quot;:10,&quot;curved&quot;:1,&quot;sourcePerimeterSpacing&quot;:0,&quot;targetPerimeterSpacing&quot;:0};" vertex="1" parent="1">
          <mxGeometry x="425" y="775" width="140" height="30" as="geometry" />
        </mxCell>
        <mxCell id="13rWBJODuXO75rGmTGon-30" value="Spring通过AOP实现事务管理, 代理类执行流程如下:&lt;div&gt;1. 判断当前方法上是否存在@Transactional注解&lt;/div&gt;&lt;div&gt;2. 存在则通过TransactionManager新建一个数据库连接&lt;/div&gt;&lt;div&gt;3. 关闭自动提交autocommit&lt;/div&gt;&lt;div&gt;4. 开启事务&lt;/div&gt;&lt;div&gt;5. 在try...catch中执行原有的业务方法, 捕获到异常rollback否则commit&lt;/div&gt;" style="text;html=1;align=center;verticalAlign=middle;whiteSpace=wrap;rounded=0;" vertex="1" parent="1">
          <mxGeometry x="680" y="825" width="550" height="30" as="geometry" />
        </mxCell>
        <mxCell id="13rWBJODuXO75rGmTGon-36" style="edgeStyle=entityRelationEdgeStyle;rounded=0;orthogonalLoop=1;jettySize=auto;html=1;startArrow=none;endArrow=none;segment=10;curved=1;sourcePerimeterSpacing=0;targetPerimeterSpacing=0;exitX=1;exitY=0.5;exitDx=0;exitDy=0;" edge="1" parent="1" source="13rWBJODuXO75rGmTGon-35" target="13rWBJODuXO75rGmTGon-37">
          <mxGeometry relative="1" as="geometry">
            <mxPoint x="840" y="985" as="targetPoint" />
          </mxGeometry>
        </mxCell>
        <mxCell id="13rWBJODuXO75rGmTGon-35" value="spring 事务失效的判断" style="whiteSpace=wrap;html=1;rounded=1;arcSize=50;align=center;verticalAlign=middle;strokeWidth=1;autosize=1;spacing=4;treeFolding=1;treeMoving=1;newEdgeStyle={&quot;edgeStyle&quot;:&quot;entityRelationEdgeStyle&quot;,&quot;startArrow&quot;:&quot;none&quot;,&quot;endArrow&quot;:&quot;none&quot;,&quot;segment&quot;:10,&quot;curved&quot;:1,&quot;sourcePerimeterSpacing&quot;:0,&quot;targetPerimeterSpacing&quot;:0};" vertex="1" parent="1">
          <mxGeometry x="585" y="970" width="160" height="30" as="geometry" />
        </mxCell>
        <mxCell id="13rWBJODuXO75rGmTGon-37" value="调用的是否为代理类(通过Spring容器获取)&lt;div&gt;userService中另外一个方法通过this.method调用则会发生事务失效&lt;/div&gt;" style="text;html=1;align=center;verticalAlign=middle;whiteSpace=wrap;rounded=0;" vertex="1" parent="1">
          <mxGeometry x="810" y="970" width="370" height="40" as="geometry" />
        </mxCell>
      </root>
    </mxGraphModel>
  </diagram>
</mxfile>
